<?xml version="1.0" encoding="UTF-8"?>
<svg version="1.1" xmlns="http://www.w3.org/2000/svg" width="325" height="325">
<path d="M0 0 C1.3381648 -0.00679667 1.3381648 -0.00679667 2.70336324 -0.01373065 C5.66926479 -0.02631136 8.63498122 -0.02475838 11.60090637 -0.02310181 C13.73712905 -0.02909105 15.87334956 -0.03589751 18.00956726 -0.04345703 C23.79699147 -0.06108498 29.58435649 -0.0658111 35.37180495 -0.0670886 C38.99269137 -0.06851271 42.61356287 -0.07278725 46.23444557 -0.07808304 C58.88118567 -0.09657353 71.52788367 -0.10475498 84.17463684 -0.10317993 C95.93924188 -0.10197918 107.70366326 -0.12307114 119.46822184 -0.15466726 C129.58829232 -0.18087238 139.70830298 -0.19154543 149.82840711 -0.19026911 C155.8639337 -0.18976068 161.89929704 -0.19537818 167.93478966 -0.21662521 C173.61564415 -0.23607864 179.29618085 -0.2360835 184.97704697 -0.22159195 C187.05299027 -0.21951148 189.12895383 -0.22415886 191.20486259 -0.23631287 C211.13707182 -0.34538224 227.52075131 2.80633618 242.4868927 17.06430054 C243.58130676 18.15484741 243.58130676 18.15484741 244.6978302 19.26742554 C245.26243958 19.80883179 245.82704895 20.35023804 246.4087677 20.90805054 C260.03025742 35.17818263 261.14666266 53.85975144 261.10188293 72.39755249 C261.10759217 74.53407141 261.11455856 76.67058728 261.12268066 78.80709839 C261.14056748 84.58617261 261.1394519 90.36509462 261.13373828 96.14418817 C261.13063948 100.97988029 261.13674668 105.81554347 261.14277703 110.65123147 C261.15680641 122.06588268 261.15527459 133.48045902 261.14387512 144.89511108 C261.13239968 156.64499835 261.14646371 168.39465721 261.1732716 180.14451438 C261.19547238 190.25614024 261.20205598 200.36769463 261.19619519 210.47934312 C261.19283439 216.50812291 261.19518211 222.53675637 261.21244621 228.56551552 C261.22798272 234.23820323 261.22388552 239.91055432 261.20514107 245.58322906 C261.2014735 247.65594356 261.20450968 249.72868338 261.21502686 251.80137444 C261.30831818 271.71954912 258.14786897 288.1019461 243.9009552 303.05648804 C243.17392395 303.78609741 242.4468927 304.51570679 241.6978302 305.26742554 C241.15642395 305.83203491 240.6150177 306.39664429 240.0572052 306.97836304 C225.76939255 320.61672965 207.0779517 321.71490858 188.52009583 321.65560913 C186.37871026 321.65967913 184.23732679 321.66502342 182.09594727 321.67153931 C176.30466966 321.68516761 170.51355314 321.67993276 164.72227287 321.67040205 C158.64824377 321.6627822 152.57422803 321.66985751 146.50019836 321.67456055 C136.30189042 321.68001132 126.10364775 321.67284425 115.90534973 321.65853882 C104.13157816 321.64221366 92.35796246 321.64750265 80.58419466 321.66401803 C70.45733196 321.67765219 60.33051606 321.67954312 50.20364714 321.67170203 C44.16325547 321.66703614 38.12293696 321.66637083 32.08255005 321.67631149 C26.40252738 321.68500694 20.72270479 321.6789121 15.04270363 321.66162872 C12.96389408 321.65767765 10.88506757 321.65877415 8.80626488 321.66541672 C-11.41231866 321.7240436 -11.41231866 321.7240436 -20.3021698 318.26742554 C-20.95014275 318.0196102 -21.59811569 317.77179485 -22.26572418 317.51646996 C-30.8905235 313.93295418 -37.79706515 308.94802761 -44.3021698 302.26742554 C-45.25349792 301.36443726 -45.25349792 301.36443726 -46.2240448 300.44320679 C-50.20286735 296.3851599 -52.6964663 291.9160349 -55.1146698 286.82992554 C-55.40495056 286.2213269 -55.69523132 285.61272827 -55.99430847 284.98568726 C-59.50877223 277.17277196 -60.6021677 269.45566319 -60.56286621 260.94506836 C-60.56860453 259.60372851 -60.56860453 259.60372851 -60.57445878 258.23529088 C-60.58471277 255.26238007 -60.58081116 252.28966514 -60.576828 249.31674194 C-60.58117868 247.17565229 -60.58636302 245.03456419 -60.59231567 242.89347839 C-60.60567852 237.09385333 -60.60628736 231.29429354 -60.60375237 225.49465609 C-60.60268083 220.64636061 -60.60757072 215.79807825 -60.6123578 210.94978559 C-60.62344358 199.50845503 -60.62389559 188.0671573 -60.61784363 176.62582397 C-60.61180375 164.83733181 -60.62411741 153.048959 -60.6454137 141.2604872 C-60.66304772 131.12517813 -60.66902821 120.98990699 -60.66577595 110.85458314 C-60.66396585 104.8074477 -60.66657213 98.76039741 -60.68049049 92.71327591 C-60.69309348 87.02508305 -60.69110125 81.33707584 -60.67807961 75.64888573 C-60.67571968 73.56684874 -60.67842748 71.48479859 -60.68670273 69.40277672 C-60.76135681 49.15272089 -60.76135681 49.15272089 -57.3021698 40.26742554 C-57.054334 39.6194935 -56.8064982 38.97156147 -56.55115223 38.30399513 C-52.96811415 29.6790522 -47.98267763 22.77243842 -41.3021698 16.26742554 C-40.70017761 15.63320679 -40.09818542 14.99898804 -39.47795105 14.34555054 C-35.41990416 10.36672799 -30.95077916 7.87312903 -25.8646698 5.45492554 C-24.95177185 5.01950439 -24.95177185 5.01950439 -24.02043152 4.57528687 C-16.21625448 1.06475382 -8.50121284 -0.03225321 0 0 Z " fill="#0063A7" transform="translate(62.30216979980469,1.732574462890625)"/>
<path d="M0 0 C1.53730522 -0.01702469 1.53730522 -0.01702469 3.10566711 -0.03439331 C4.22938721 -0.03146271 5.3531073 -0.0285321 6.51087952 -0.0255127 C7.69482803 -0.03398224 8.87877655 -0.04245178 10.09860229 -0.05117798 C13.34662498 -0.07058696 16.59429563 -0.07632373 19.84236598 -0.07443047 C22.55365556 -0.07431085 25.26489123 -0.08287112 27.97616583 -0.09120798 C34.37253918 -0.11044924 40.76878203 -0.1133233 47.16517639 -0.10656738 C53.76427198 -0.09992565 60.36280875 -0.12279383 66.96179098 -0.15988111 C72.62729268 -0.19056694 78.2926145 -0.20193941 83.95819765 -0.1980443 C87.3421143 -0.19597558 90.72559614 -0.20147384 94.10943413 -0.22593689 C97.88302658 -0.24800322 101.65526155 -0.23848536 105.42884827 -0.2208252 C106.55054413 -0.23408844 107.67223999 -0.24735168 108.82792664 -0.26101685 C116.39882046 -0.17844268 116.39882046 -0.17844268 119.63938904 2.74156189 C120.09979584 3.6170015 120.56020264 4.4924411 121.03456116 5.39440918 C121.6709552 6.40447021 122.30734924 7.41453125 122.96302795 8.4552002 C123.6298761 9.59142822 124.29672424 10.72765625 124.98377991 11.89831543 C125.35354446 12.52527313 125.72330902 13.15223083 126.10427856 13.79818726 C126.89910117 15.14643907 127.69225996 16.49567289 128.48390198 17.84579468 C130.60558745 21.46335939 132.74044138 25.07314057 134.87440491 28.68347168 C135.30810394 29.4178093 135.74180298 30.15214691 136.18864441 30.90873718 C140.3324498 37.91667325 144.54736417 44.88015746 148.78456116 51.83190918 C155.03060716 62.08468671 161.23188898 72.36244299 167.39100647 82.66760254 C167.97334045 83.64092529 168.55567444 84.61424805 169.15565491 85.61706543 C169.66539856 86.47050537 170.17514221 87.32394531 170.70033264 88.20324707 C171.76991823 89.95979431 172.89378254 91.68324125 174.03456116 93.39440918 C174.0404274 92.28829285 174.04629364 91.18217651 174.05233765 90.0425415 C174.10952044 79.62461353 174.18225876 69.2068952 174.27027607 58.78918076 C174.3150268 53.43315888 174.35427259 48.0772139 174.3809967 42.72106934 C174.40698269 37.55325929 174.44735178 32.38574441 174.49774742 27.21811676 C174.51444799 25.24537067 174.52594236 23.27257348 174.53217506 21.29976654 C174.54178146 18.53900621 174.56979907 15.77900648 174.60218811 13.01843262 C174.60075302 12.20059799 174.59931793 11.38276337 174.59783936 10.54014587 C174.65237952 7.2587334 174.81221355 4.81288651 176.3664093 1.88775635 C179.03004108 -0.49675497 181.46559353 -0.12427477 184.96815491 -0.13684082 C185.64250076 -0.14066772 186.31684662 -0.14449463 187.0116272 -0.1484375 C188.43636062 -0.15115648 189.86114397 -0.14379592 191.28578186 -0.1270752 C193.46164428 -0.10569319 195.63419312 -0.12685417 197.80995178 -0.15246582 C199.19602675 -0.14982188 200.58209967 -0.14469552 201.96815491 -0.13684082 C203.22684387 -0.1323291 204.48553284 -0.12781738 205.78236389 -0.12316895 C209.70341942 0.50085611 210.63710809 1.28938445 213.03456116 4.39440918 C213.53792572 7.32456112 213.53792572 7.32456112 213.54249573 10.80210876 C213.55377502 12.12140381 213.56505432 13.44069885 213.57667542 14.79997253 C213.56889829 16.26040869 213.56070562 17.72084268 213.55213928 19.18127441 C213.55755992 20.72053693 213.56468225 22.25979426 213.57337952 23.79904175 C213.59162452 27.9788886 213.58454024 32.1583408 213.57186317 36.33819461 C213.56173972 40.71209198 213.5711272 45.08595544 213.57740784 49.45985413 C213.58468693 56.80634632 213.57509052 64.15267772 213.55604553 71.49914551 C213.53428432 79.99141729 213.54132153 88.48330484 213.56335115 96.97556728 C213.58150739 104.26656966 213.58406215 111.5574564 213.57359648 118.84847409 C213.56736172 123.20313346 213.56652521 127.55761229 213.57974243 131.91226006 C213.59130334 136.00736202 213.58327116 140.10196913 213.56016541 144.19701767 C213.5548792 145.69942847 213.55639065 147.20188096 213.56521606 148.70427513 C213.57615997 150.75665295 213.56242536 152.80744876 213.54249573 154.85972595 C213.54098763 156.0076937 213.53947952 157.15566145 213.53792572 158.3384161 C212.92287869 162.07244829 211.69855886 163.74848782 209.03456116 166.39440918 C206.18128967 167.04138184 206.18128967 167.04138184 202.91346741 167.05847168 C201.73075256 167.06491699 200.54803772 167.0713623 199.32948303 167.07800293 C198.09778381 167.05866699 196.86608459 167.03933105 195.59706116 167.01940918 C194.36922913 167.03874512 193.14139709 167.05808105 191.87635803 167.07800293 C182.98736885 167.02961431 182.98736885 167.02961431 179.01112366 164.37878418 C178.35885803 163.39394043 177.70659241 162.40909668 177.03456116 161.39440918 C176.62874817 160.78194336 176.22293518 160.16947754 175.80482483 159.53845215 C174.42739858 157.39613053 173.13382218 155.21728567 171.84706116 153.01940918 C168.42908851 147.30341249 164.95836525 141.65803634 161.22206116 136.14440918 C157.1134218 130.06584024 153.14893446 123.90438336 149.22206116 117.70690918 C144.74195887 110.63806141 140.23231525 103.59119891 135.65956116 96.58190918 C128.75462207 85.99208216 121.94555857 75.34175929 115.14002991 64.68786621 C112.95127196 61.26412495 110.75906892 57.84261217 108.56581116 54.42175293 C107.83117484 53.2755237 107.09655549 52.1292836 106.36195374 50.98303223 C104.96645197 48.80579473 103.57047833 46.6288596 102.17396545 44.45227051 C101.54401672 43.46895752 100.91406799 42.48564453 100.26502991 41.47253418 C99.71226379 40.61047363 99.15949768 39.74841309 98.58998108 38.86022949 C97.03456116 36.39440918 97.03456116 36.39440918 96.02365112 33.77853394 C94.33385929 31.27627015 94.33385929 31.27627015 92.19085979 30.9354248 C89.66634525 30.75625304 87.18446275 30.74550603 84.65370178 30.78259277 C83.6924791 30.77692795 82.73125641 30.77126312 81.74090576 30.76542664 C78.55714705 30.75189951 75.37452057 30.77288664 72.19081116 30.79284668 C69.98267331 30.78734986 67.77454055 30.77922832 65.56642151 30.76858521 C59.74776094 30.74565693 53.92947542 30.74993726 48.11079407 30.76239014 C38.79657056 30.78067109 29.48256674 30.77083234 20.168396 30.7365303 C16.90930192 30.73040493 13.65067429 30.74371363 10.39161682 30.7585144 C8.39955015 30.75556743 6.40748435 30.75191335 4.41542053 30.74743652 C3.50519638 30.75672684 2.59497223 30.76601715 1.65716553 30.77558899 C0.82437576 30.77027664 -0.008414 30.76496429 -0.86643982 30.75949097 C-1.58983803 30.76137609 -2.31323624 30.76326122 -3.0585556 30.76520348 C-5.54155868 30.28238242 -6.43114309 29.37047188 -7.96543884 27.39440918 C-8.35362244 24.89831543 -8.35362244 24.89831543 -8.36387634 21.95690918 C-8.36774353 20.8972998 -8.37161072 19.83769043 -8.37559509 18.74597168 C-8.36399353 17.63995605 -8.35239197 16.53394043 -8.34043884 15.39440918 C-8.35204041 14.28839355 -8.36364197 13.18237793 -8.37559509 12.04284668 C-8.37172791 10.9832373 -8.36786072 9.92362793 -8.36387634 8.83190918 C-8.36049255 7.86124512 -8.35710876 6.89058105 -8.35362244 5.89050293 C-7.57002896 0.85184903 -4.71958975 0.01973513 0 0 Z " fill="#FDFEFE" transform="translate(59.96543884277344,79.6055908203125)"/>
<path d="M0 0 C3.22186876 1.14710498 4.05408203 2.42143416 5.8984375 5.2734375 C6.77628906 6.62308594 6.77628906 6.62308594 7.671875 8 C8.28289062 8.95648438 8.89390625 9.91296875 9.5234375 10.8984375 C10.19632812 11.85492188 10.86921875 12.81140625 11.5625 13.796875 C12.53316406 15.20839844 12.53316406 15.20839844 13.5234375 16.6484375 C14.1215625 17.50953125 14.7196875 18.370625 15.3359375 19.2578125 C16.9125444 22.76368837 16.78884473 24.26847368 15.5234375 27.8984375 C13.70349675 30.27072804 11.59322039 32.25055707 9.3984375 34.2734375 C8.20129592 35.41996822 7.005968 36.56839579 5.8125 37.71875 C5.23918945 38.26692383 4.66587891 38.81509766 4.07519531 39.37988281 C2.19869556 41.2162309 0.4704389 43.14581499 -1.2265625 45.1484375 C-4.38505135 48.86982535 -7.81981594 52.25729629 -11.29296875 55.68359375 C-13.25630921 57.67503211 -15.09735919 59.71146328 -16.9140625 61.8359375 C-20.52528172 66.05893974 -24.46261376 69.91805852 -28.4375 73.796875 C-30.51782341 75.72939796 -30.51782341 75.72939796 -31.4765625 77.8984375 C-30.54583923 77.88955505 -29.61511597 77.88067261 -28.65618896 77.871521 C-19.88668189 77.79044806 -11.11725082 77.73047843 -2.34745407 77.69118881 C2.16126367 77.67031048 6.66967898 77.64198861 11.17822266 77.59667969 C15.52893803 77.55323031 19.87936243 77.52930225 24.23027802 77.51892853 C25.8905063 77.51153548 27.55071859 77.49709852 29.21082306 77.47551727 C31.53575599 77.4464943 33.85948549 77.44248087 36.18457031 77.44433594 C36.8714946 77.42995483 37.55841888 77.41557373 38.26615906 77.40075684 C41.61354805 77.42967185 43.26959621 77.70188498 45.94976807 79.7771759 C47.86050267 82.35279176 48.03815712 83.74220797 48.0546875 86.92578125 C48.06242187 88.36147461 48.06242187 88.36147461 48.0703125 89.82617188 C48.05484375 90.81939453 48.039375 91.81261719 48.0234375 92.8359375 C48.04664063 94.3199707 48.04664063 94.3199707 48.0703125 95.83398438 C48.06515625 96.79240234 48.06 97.75082031 48.0546875 98.73828125 C48.05017578 99.60831787 48.04566406 100.47835449 48.04101562 101.37475586 C47.29639776 105.00547041 46.29752273 106.38972415 43.5234375 108.8984375 C39.98219013 109.6635176 36.4782614 109.57072797 32.86743164 109.52954102 C31.7824791 109.53669632 30.69752655 109.54385162 29.57969666 109.55122375 C25.98890227 109.56814906 22.39934966 109.54868294 18.80859375 109.52734375 C16.3152201 109.52817215 13.8218465 109.53063042 11.32847595 109.53465271 C6.10043921 109.53751342 0.87272513 109.52331181 -4.35522461 109.49536133 C-9.7261517 109.46686724 -15.09654697 109.45979105 -20.4675293 109.47485352 C-26.94965474 109.49297058 -33.43142286 109.49154396 -39.91354561 109.47263908 C-42.38510165 109.46745342 -44.8566763 109.4679437 -47.3282299 109.47418404 C-50.78294814 109.47963152 -54.23656889 109.45927333 -57.69116211 109.43188477 C-58.71418427 109.43841064 -59.73720642 109.44493652 -60.79122925 109.45166016 C-65.1481671 109.3928992 -67.7426127 109.3441647 -71.52442932 107.04747009 C-76.38060997 101.701477 -80.75941703 94.34336337 -81.3515625 87.0234375 C-80.95627021 82.59455042 -78.72385489 80.47706447 -75.47265625 77.64453125 C-73.42879106 75.85664917 -71.72961905 73.96950885 -69.9765625 71.8984375 C-67.7309831 69.29196141 -65.43104738 66.80909229 -62.9765625 64.3984375 C-60.56323533 62.02801393 -58.30384397 59.59107442 -56.1015625 57.0234375 C-53.51022045 54.0137622 -50.80401467 51.18755134 -47.9765625 48.3984375 C-44.5477346 45.01602351 -41.35607732 41.51773308 -38.22265625 37.86328125 C-35.7529689 35.08419236 -33.09752928 32.50983254 -30.44921875 29.90234375 C-27.89985867 27.31259777 -25.54985662 24.5765013 -23.18359375 21.8203125 C-21.55653688 19.9884773 -19.86353921 18.28715639 -18.1015625 16.5859375 C-14.19834684 12.77102988 -10.86902634 8.53399045 -7.4921875 4.25390625 C-3.72143385 -0.15261401 -3.72143385 -0.15261401 0 0 Z " fill="#FBFCFD" transform="translate(132.4765625,137.1015625)"/>
</svg>
